<svg width="52" height="60" viewBox="0 0 52 60" fill="none" xmlns="http://www.w3.org/2000/svg">
<path fill-rule="evenodd" clip-rule="evenodd" d="M37.0208 48.1183C37.2087 48.6656 37.3398 49.3044 37.6018 50.5821L38.2313 53.6515C38.8846 56.8368 41.6879 59.1235 44.9395 59.1235C49.734 59.1235 53.0443 54.3234 51.3402 49.8419L35.131 7.21254C34.9361 6.69993 34.8386 6.44363 34.7367 6.2148C33.3643 3.13333 30.3839 1.07803 27.0159 0.890399C26.7658 0.876465 26.4916 0.876465 25.9432 0.876465C25.3933 0.876465 25.1184 0.876465 24.8677 0.89046C21.492 1.07893 18.5066 3.14346 17.1388 6.23544C17.0373 6.46501 16.9402 6.72222 16.7462 7.23663L16.7462 7.23672L0.650831 49.904C-1.03045 54.3609 2.26315 59.1235 7.02663 59.1235C10.2696 59.1235 13.0633 56.8381 13.7059 53.6594L14.328 50.5821C14.5815 49.3282 14.7082 48.7013 14.8895 48.1639C15.992 44.8956 18.8655 42.5449 22.2875 42.1118C22.8502 42.0406 23.4898 42.0406 24.769 42.0406H27.1308C28.435 42.0406 29.0871 42.0406 29.661 42.1147C33.0565 42.5532 35.9092 44.8801 37.0208 48.1183ZM26.0214 37.6466C29.6752 37.6466 32.6371 34.6846 32.6371 31.0308C32.6371 27.377 29.6752 24.415 26.0214 24.415C22.3676 24.415 19.4056 27.377 19.4056 31.0308C19.4056 34.6846 22.3676 37.6466 26.0214 37.6466Z" fill="black"/>
</svg>
