<?xml version="1.0" encoding="utf-8"?>
<!-- Generator: Adobe Illustrator 23.1.1, SVG Export Plug-In . SVG Version: 6.00 Build 0)  -->
<svg version="1.1" xmlns="http://www.w3.org/2000/svg" xmlns:xlink="http://www.w3.org/1999/xlink" x="0px" y="0px"
	 viewBox="0 0 1197 630" style="enable-background:new 0 0 1197 630;" xml:space="preserve">
<style type="text/css">
	.st0{fill:#FED330;}
	.st1{fill-rule:evenodd;clip-rule:evenodd;fill:none;stroke:#000000;stroke-miterlimit:10;}
</style>
<g id="Layer_1">
	<rect x="0" y="0.7" class="st0" width="1197" height="630"/>
	<rect x="0" y="0.7" class="st0" width="1197" height="630"/>
</g>
<g id="Layer_2">
	<path class="st1" d="M636.6,377.9c0.7,1.9,1.1,4.1,2,8.5l2.2,10.5c2.3,10.9,12,18.8,23.2,18.8c16.6,0,28.1-16.5,22.2-31.9
		l-56.1-146.4c-0.7-1.8-1-2.6-1.4-3.4c-4.8-10.6-15.1-17.6-26.7-18.3c-0.9,0-1.8,0-3.7,0c-1.9,0-2.9,0-3.7,0
		c-11.7,0.6-22,7.7-26.8,18.4c-0.4,0.8-0.7,1.7-1.4,3.4L510.7,384c-5.8,15.3,5.6,31.7,22.1,31.7c11.2,0,20.9-7.8,23.1-18.8l2.2-10.6
		c0.9-4.3,1.3-6.5,1.9-8.3c3.8-11.2,13.8-19.3,25.6-20.8c1.9-0.2,4.2-0.2,8.6-0.2h8.2c4.5,0,6.8,0,8.8,0.3
		C622.9,358.8,632.8,366.8,636.6,377.9z M598.6,341.9c12.6,0,22.9-10.2,22.9-22.7s-10.3-22.7-22.9-22.7c-12.6,0-22.9,10.2-22.9,22.7
		S585.9,341.9,598.6,341.9z"/>
</g>
</svg>
