<svg width="561" height="357" viewBox="0 0 561 357" fill="none" xmlns="http://www.w3.org/2000/svg">
<rect y="0.416504" width="561" height="355.818" fill="#F7F7F7"/>
<circle cx="51.5975" cy="205.078" r="8.73035" fill="#3A7AF2"/>
<circle cx="101.815" cy="178.325" r="8.73035" fill="#3A7AF2"/>
<circle cx="128.744" cy="178.325" r="8.73035" fill="#3A7AF2"/>
<circle cx="205.595" cy="178.325" r="8.73035" fill="#E73B2F"/>
<circle cx="282.446" cy="178.325" r="8.73035" fill="#FAB405"/>
<circle cx="332.484" cy="178.325" r="8.73035" fill="#3A7AF2"/>
<circle cx="359.297" cy="178.325" r="8.73035" fill="#3A7AF2"/>
<circle cx="332.484" cy="151.061" r="8.73035" fill="#3A7AF2"/>
<circle cx="359.297" cy="151.061" r="8.73035" fill="#3A7AF2"/>
<circle cx="409.336" cy="178.325" r="8.73035" fill="#2E9E49"/>
<circle cx="513.103" cy="178.325" r="8.73035" fill="#E73B2F"/>
<circle cx="409.336" cy="205.589" r="8.73035" fill="#2E9E49"/>
<circle cx="409.336" cy="151.061" r="8.73035" fill="#2E9E49"/>
<circle cx="487.246" cy="151.061" r="8.73035" fill="#E73B2F"/>
<circle cx="101.815" cy="151.061" r="8.73035" fill="#3A7AF2"/>
<circle cx="128.744" cy="151.061" r="8.73035" fill="#3A7AF2"/>
<circle cx="178.953" cy="205.078" r="8.73035" fill="#E73B2F"/>
<circle cx="178.953" cy="151.061" r="8.73035" fill="#E73B2F"/>
<circle cx="255.633" cy="205.078" r="8.73035" fill="#FAB405"/>
<circle cx="255.633" cy="151.061" r="8.73035" fill="#FAB405"/>
</svg>
