<svg width="167" height="167" viewBox="0 0 167 167" fill="none" xmlns="http://www.w3.org/2000/svg">
<circle cx="83.3221" cy="83.2433" r="82.9836" fill="#F6F6F6"/>
<path fill-rule="evenodd" clip-rule="evenodd" d="M47.2482 31.1693C38.4116 31.1693 31.2482 38.3327 31.2482 47.1693V119.317C31.2482 128.154 38.4116 135.317 47.2481 135.317H119.396C128.233 135.317 135.396 128.154 135.396 119.317V47.1693C135.396 38.3328 128.233 31.1693 119.396 31.1693H47.2482ZM55.5017 64.0711C60.724 64.0711 64.9576 59.8375 64.9576 54.6151C64.9576 49.3927 60.724 45.1592 55.5017 45.1592C50.2793 45.1592 46.0457 49.3927 46.0457 54.6151C46.0457 59.8375 50.2793 64.0711 55.5017 64.0711ZM47.5899 72.9157H63.2983V119.658H47.5899V72.9157ZM73.9159 72.9611V119.546H89.578V90.0134C90.4163 88.0685 93.1795 84.1786 97.5254 84.1786C101.871 84.1786 104.333 88.6385 105.02 90.8685V119.546H120.598V88.2095C120.598 83.4923 116.596 78.5012 114.595 76.5952C113.034 74.9632 108.369 71.6922 102.194 71.6636C96.019 71.635 90.9271 76.5282 89.153 78.9783V72.9611H73.9159Z" fill="black"/>
</svg>
