<svg width="150" height="150" viewBox="0 0 150 150" fill="none" xmlns="http://www.w3.org/2000/svg">
<path fill-rule="evenodd" clip-rule="evenodd" d="M103.607 121.659C104.095 123.068 104.435 124.713 105.116 128.004L106.75 135.908C108.445 144.111 115.722 150 124.162 150C136.608 150 145.2 137.639 140.777 126.098L98.702 16.3169C98.1961 14.9968 97.943 14.3368 97.6785 13.7475C94.1162 5.81197 86.3798 0.519078 77.6374 0.0358833C76.9882 -1.12476e-07 76.2765 0 74.853 0C73.4256 0 72.712 -2.31567e-08 72.0613 0.0360404C63.2989 0.521396 55.5496 5.83805 51.9991 13.8006C51.7357 14.3918 51.4836 15.0542 50.98 16.3789L9.20079 126.258C4.83663 137.735 13.3859 150 25.7506 150C34.1685 150 41.4202 144.115 43.0882 135.929L44.703 128.004C45.3611 124.775 45.6899 123.16 46.1605 121.776C49.0223 113.36 56.4812 107.306 65.3638 106.191C66.8244 106.007 68.4846 106.007 71.8051 106.007H77.9357C81.321 106.007 83.0137 106.007 84.5034 106.198C93.3172 107.328 100.722 113.32 103.607 121.659ZM75.056 94.6919C84.5402 94.6919 92.2285 87.064 92.2285 77.6546C92.2285 68.2452 84.5402 60.6173 75.056 60.6173C65.5717 60.6173 57.8831 68.2452 57.8831 77.6546C57.8831 87.064 65.5717 94.6919 75.056 94.6919Z" fill="#F5F5F5"/>
</svg>
